<?xml version="1.0" encoding="UTF-8" standalone="no"?>
<svg xmlns="http://www.w3.org/2000/svg" xmlns:xlink="http://www.w3.org/1999/xlink" width="700" height="400" viewBox="0 0 700 400">
  <style>
    text {
      font-family: 'Helvetica Neue', Arial, sans-serif;
      fill: #24283b;
    }
    .box {
      fill: #c0caf5;
      stroke: #7aa2f7;
      stroke-width: 2;
      rx: 8;
      ry: 8;
    }
    .arrow {
      stroke: #7aa2f7;
      stroke-width: 2;
      fill: none;
      marker-end: url(#arrowhead);
    }
    .arrow-label {
      font-size: 12px;
      fill: #565f89;
      text-anchor: middle;
    }
    .box-title {
      font-size: 14px;
      font-weight: bold;
      text-anchor: middle;
    }
    .box-subtitle {
      font-size: 12px;
      text-anchor: middle;
    }
    .header {
      font-size: 18px;
      font-weight: bold;
      text-anchor: middle;
      fill: #bb9af7;
    }
  </style>
  <defs>
    <marker id="arrowhead" markerWidth="10" markerHeight="7" refX="9" refY="3.5" orient="auto">
      <polygon points="0 0, 10 3.5, 0 7" fill="#7aa2f7" />
    </marker>
  </defs>
  
  <!-- Header -->
  <text x="350" y="30" class="header">Conventional Commits Workflow</text>
  
  <!-- Boxes - Top Row -->
  <rect x="50" y="70" width="140" height="80" class="box" />
  <text x="120" y="100" class="box-title">Code Changes</text>
  <text x="120" y="120" class="box-subtitle">Write your code</text>
  
  <rect x="280" y="70" width="140" height="80" class="box" />
  <text x="350" y="100" class="box-title">Stage Changes</text>
  <text x="350" y="120" class="box-subtitle">(git add or gfa)</text>
  
  <rect x="510" y="70" width="140" height="80" class="box" />
  <text x="580" y="100" class="box-title">Commit</text>
  <text x="580" y="120" class="box-subtitle">(git-cz or gcz)</text>
  
  <!-- Boxes - Bottom Row -->
  <rect x="50" y="250" width="140" height="80" class="box" />
  <text x="120" y="280" class="box-title">Push</text>
  <text x="120" y="300" class="box-subtitle">git push</text>
  
  <rect x="280" y="250" width="140" height="80" class="box" />
  <text x="350" y="280" class="box-title">Passes Validation?</text>

  <rect x="510" y="250" width="140" height="80" class="box" />
  <text x="580" y="280" class="box-title">Commitlint Checks</text>
  <text x="580" y="300" class="box-subtitle">Message Format</text>
  
  <!-- Arrows - Top Row -->
  <path d="M 190 110 L 280 110" class="arrow" />
  <path d="M 420 110 L 510 110" class="arrow" />
  
  <!-- Arrows - Top to Bottom -->
  <path d="M 580 150 L 580 250" class="arrow" />
  
  <!-- Arrows - Bottom Row -->
  <path d="M 510 290 L 420 290" class="arrow" />
  <text x="465" y="280" class="arrow-label">No</text>
  
  <path d="M 280 290 L 190 290" class="arrow" />
  <text x="235" y="280" class="arrow-label">Yes</text>
  
  <!-- Special Arrows -->
  <path d="M 510 320 C 640 320 640 170 580 170" class="arrow" />
  <text x="610" y="340" class="arrow-label">Edit and try again</text>
</svg>